<?xml version="1.0" encoding="utf-8"?>
<!-- Generator: Adobe Illustrator 16.0.0, SVG Export Plug-In . SVG Version: 6.00 Build 0)  -->
<!DOCTYPE svg PUBLIC "-//W3C//DTD SVG 1.1//EN" "http://www.w3.org/Graphics/SVG/1.1/DTD/svg11.dtd">
<svg version="1.1" id="Layer_1" xmlns="http://www.w3.org/2000/svg" xmlns:xlink="http://www.w3.org/1999/xlink" x="0px" y="0px"
	 width="1375px" height="590px" viewBox="0 0 1375 590" enable-background="new 0 0 1375 590" xml:space="preserve">
<g>
	<g>
		<g>
			<path fill="#F29100" d="M1344.803,285.607v3.391h-6.563v17.153h-4.06v-17.153h-6.529v-3.391H1344.803z M1366.924,306.151
				l-0.761-12.129c-0.053-1.521-0.053-3.52-0.129-5.696h-0.254c-0.506,1.852-1.179,4.246-1.683,6.152l-3.7,11.4h-4.261l-3.7-11.709
				c-0.359-1.597-0.925-3.99-1.375-5.842h-0.236c0,1.887-0.126,3.848-0.168,5.696l-0.757,12.129h-3.918l1.49-20.544h6.108
				l3.516,10.029c0.526,1.576,0.892,3.064,1.359,5.183h0.127c0.51-1.795,0.945-3.607,1.435-4.983l3.497-10.229h5.84l1.632,20.544
				H1366.924z"/>
		</g>
	</g>
	<g>
		<g>
			<path fill="#F29100" d="M167.031,201.399c20.897,9.973,49.557-6.375,64.003-36.584c14.452-30.204,9.232-62.779-11.655-72.787
				c-20.897-10-49.553,6.363-64.006,36.564C140.915,158.785,146.116,191.36,167.031,201.399z"/>
			<path fill="#F29100" d="M311.224,315.668c0,74.395,92.525,198.724,102.696,218.395c3.064,5.894,5.866,14.435,5.947,20.889
				c0.309,22.936-16.826,33.961-36.635,33.961c-10.487,0-18.976-3.497-29.727-15.81c-9.897-11.299-65.788-86.414-81.809-108.211
				c-40.829-55.591-106.369-110.496-141.653-0.687c-19.381,60.339-16.416,124.687-57.395,124.687
				C5.88,588.892-27.6,282.365,44.445,66.561c11.686-34.665,31.957-72.515,58.711-64.35c38.249,11.605,16.959,65.755,11.603,89.756
				c-4.706,21.12-36.272,133.018,28.711,161.701c62.779,27.736,180.48-102.325,196.956-116.465
				c12.799-11.032,28.074-13.227,38.276-3.137c11.091,10.984,10.06,26.174-1.327,40.153
				C367.133,186.809,311.224,249.847,311.224,315.668z"/>
		</g>
		<linearGradient id="SVGID_1_" gradientUnits="userSpaceOnUse" x1="105.1992" y1="258.1367" x2="105.1992" y2="1.0879">
			<stop  offset="0" style="stop-color:#C00B25"/>
			<stop  offset="1" style="stop-color:#FFFFFF"/>
		</linearGradient>
		<path fill="url(#SVGID_1_)" d="M144.976,257.547c9.846,1.054,19.583,0.672,29.066-0.964c-11.044,1.819-21.406,1.148-30.571-2.915
			c-65.002-28.684-33.424-140.581-28.719-161.701c5.347-24.001,26.644-78.151-11.605-89.756
			c-26.753-8.165-47.025,29.685-58.708,64.35c-2.049,6.112-3.991,12.312-5.868,18.533c-0.443,2.862-0.832,5.744-1.143,8.657
			C28.481,176.82,76.618,250.182,144.976,257.547z"/>
		<linearGradient id="SVGID_2_" gradientUnits="userSpaceOnUse" x1="289.2163" y1="588.9121" x2="289.2163" y2="385.0889">
			<stop  offset="0" style="stop-color:#FFFFFF"/>
			<stop  offset="1" style="stop-color:#C00B25"/>
		</linearGradient>
		<path fill="url(#SVGID_2_)" d="M271.68,464.892c16.018,21.797,71.907,96.912,81.809,108.211
			c10.752,12.313,19.236,15.81,29.727,15.81c19.81,0,36.941-11.025,36.64-33.961c-0.086-6.454-2.887-14.995-5.953-20.889
			c-5.322-10.332-33.355-49.443-58.782-95.135c-61.141-55.011-137.873-71.852-190.718-31.781c0,0-2.574,1.972-5.831,5.348
			C194.211,379.763,240.266,422.102,271.68,464.892z"/>
	</g>
	<g>
		<path fill="#F29100" d="M1243.247,284.23c-53.651,0-97.326,44.024-97.326,98.054c0,54.106,43.675,98.09,97.326,98.09
			c53.707,0,97.366-43.983,97.366-98.09C1340.613,328.254,1296.954,284.23,1243.247,284.23z M1243.247,439.87
			c-31.494,0-57.17-25.838-57.17-57.586c0-31.766,25.676-57.583,57.17-57.583c31.515,0,57.21,25.817,57.21,57.583
			C1300.457,414.032,1274.762,439.87,1243.247,439.87z"/>
		<path fill="#F29100" d="M1129.236,361.905c-9.938-47.213-45.056-77.675-89.514-77.675c-53.671,0-97.351,44.024-97.351,98.075
			c0,54.086,43.68,98.09,97.351,98.09c27.326,0,54.74-10.911,72.49-29.502c7.651-8.066,8.047-21.481,0.036-29.209
			c-8.052-7.757-20.252-6.979-28.431,0.565c-11.387,10.388-27.562,17.639-44.096,17.639c-27.09,0-49.826-19.109-55.697-44.679
			h126.339c11.149,0,20.11-9.063,20.11-20.231C1130.475,372.783,1129.727,364.207,1129.236,361.905z M989.549,354.743
			c9.705-17.912,28.558-30.042,50.174-30.042c20.399,0,36.497,10.983,45.147,30.042H989.549z"/>
		<path fill="#F29100" d="M937.428,285.501c-21.489-0.219-40.946,6.525-56.734,17.981c-1.002-10.077-9.466-17.981-19.764-17.981
			c-11.048,0-19.893,8.956-19.893,20.014v153.611c0,11.042,8.845,20.019,19.893,20.019c10.913,0,19.849-8.977,19.849-20.019v-76.843
			c0.077-38.948,21.926-54.61,55.852-57.949c10.603-1.033,20.632-10.061,20.632-20.019
			C957.262,292.825,948.355,285.607,937.428,285.501z"/>
		<path fill="#F29100" d="M616.13,446.126l-66.051-76.587l57.984-48.866c8.479-7.105,9.647-19.671,2.567-28.101
			c-7.036-8.413-19.627-9.465-28.096-2.394l-78.439,66.106v-89.967c0-11.076-8.946-20.042-19.927-20.042
			c-10.975,0-19.858,8.966-19.858,20.042v192.825c0,11.045,8.884,20.004,19.858,20.004c10.98,0,19.927-8.959,19.927-20.004v-50.837
			l15.55-13.131l66.434,77.027c7.228,8.335,19.809,9.297,28.115,2.084C622.489,467.138,623.395,454.502,616.13,446.126z"/>
		<path fill="#F29100" d="M792.626,285.501c-9.938,0-18.151,7.394-19.601,17.077c-15.937-11.531-35.41-18.348-56.481-18.348
			c-53.658,0-97.318,44.024-97.318,98.075c0,54.086,34.322,98.069,97.318,98.069c26.802,0,50.371-17.947,55.865-32.398l0.345-1.217
			v12.551c0,11.042,8.921,19.978,19.872,19.978c11.004,0,19.89-8.936,19.89-19.978V305.516
			C812.516,294.458,803.63,285.501,792.626,285.501z M716.508,440.035c-31.911,0-57.753-25.873-57.753-57.801
			c0-31.934,25.842-57.787,57.753-57.787c31.878,0,57.802,25.854,57.802,57.787C774.31,414.162,748.386,440.035,716.508,440.035z"/>
	</g>
</g>
</svg>
